<mxfile host="app.diagrams.net" modified="2024-05-08T08:23:44.152Z" agent="Mozilla/5.0 (Windows NT 10.0; Win64; x64) AppleWebKit/537.36 (KHTML, like Gecko) Chrome/124.0.0.0 Safari/537.36" etag="OfxcZr5GqkVgQLj_EgLA" version="24.3.1" type="device">
  <diagram id="C5RBs43oDa-KdzZeNtuy" name="Page-1">
    <mxGraphModel dx="923" dy="928" grid="1" gridSize="10" guides="1" tooltips="1" connect="1" arrows="1" fold="1" page="1" pageScale="1" pageWidth="827" pageHeight="1169" math="0" shadow="0">
      <root>
        <mxCell id="WIyWlLk6GJQsqaUBKTNV-0" />
        <mxCell id="WIyWlLk6GJQsqaUBKTNV-1" parent="WIyWlLk6GJQsqaUBKTNV-0" />
        <mxCell id="0TTvFeyUjTbbYuF8DtfV-62" value="&lt;span style=&quot;color: rgb(24, 46, 62); font-style: italic; font-weight: 400;&quot;&gt;LeituraTag_FX96000&lt;/span&gt;" style="shape=table;startSize=30;container=1;collapsible=1;childLayout=tableLayout;fixedRows=1;rowLines=0;fontStyle=1;align=center;resizeLast=1;html=1;" parent="WIyWlLk6GJQsqaUBKTNV-1" vertex="1">
          <mxGeometry x="1070" y="270" width="204" height="220" as="geometry" />
        </mxCell>
        <mxCell id="0TTvFeyUjTbbYuF8DtfV-63" value="" style="shape=tableRow;horizontal=0;startSize=0;swimlaneHead=0;swimlaneBody=0;fillColor=none;collapsible=0;dropTarget=0;points=[[0,0.5],[1,0.5]];portConstraint=eastwest;top=0;left=0;right=0;bottom=1;" parent="0TTvFeyUjTbbYuF8DtfV-62" vertex="1">
          <mxGeometry y="30" width="204" height="30" as="geometry" />
        </mxCell>
        <mxCell id="0TTvFeyUjTbbYuF8DtfV-64" value="PK" style="shape=partialRectangle;connectable=0;fillColor=none;top=0;left=0;bottom=0;right=0;fontStyle=1;overflow=hidden;whiteSpace=wrap;html=1;" parent="0TTvFeyUjTbbYuF8DtfV-63" vertex="1">
          <mxGeometry width="60" height="30" as="geometry">
            <mxRectangle width="60" height="30" as="alternateBounds" />
          </mxGeometry>
        </mxCell>
        <mxCell id="0TTvFeyUjTbbYuF8DtfV-65" value="&lt;span style=&quot;color: rgb(24, 46, 62); font-weight: 400; text-wrap: nowrap;&quot;&gt;EPC_id:varchar(50)&lt;/span&gt;" style="shape=partialRectangle;connectable=0;fillColor=none;top=0;left=0;bottom=0;right=0;align=left;spacingLeft=6;fontStyle=5;overflow=hidden;whiteSpace=wrap;html=1;" parent="0TTvFeyUjTbbYuF8DtfV-63" vertex="1">
          <mxGeometry x="60" width="144" height="30" as="geometry">
            <mxRectangle width="144" height="30" as="alternateBounds" />
          </mxGeometry>
        </mxCell>
        <mxCell id="0TTvFeyUjTbbYuF8DtfV-66" value="" style="shape=tableRow;horizontal=0;startSize=0;swimlaneHead=0;swimlaneBody=0;fillColor=none;collapsible=0;dropTarget=0;points=[[0,0.5],[1,0.5]];portConstraint=eastwest;top=0;left=0;right=0;bottom=0;" parent="0TTvFeyUjTbbYuF8DtfV-62" vertex="1">
          <mxGeometry y="60" width="204" height="30" as="geometry" />
        </mxCell>
        <mxCell id="0TTvFeyUjTbbYuF8DtfV-67" value="" style="shape=partialRectangle;connectable=0;fillColor=none;top=0;left=0;bottom=0;right=0;editable=1;overflow=hidden;whiteSpace=wrap;html=1;" parent="0TTvFeyUjTbbYuF8DtfV-66" vertex="1">
          <mxGeometry width="60" height="30" as="geometry">
            <mxRectangle width="60" height="30" as="alternateBounds" />
          </mxGeometry>
        </mxCell>
        <mxCell id="0TTvFeyUjTbbYuF8DtfV-68" value="&lt;span style=&quot;color: rgb(24, 46, 62); text-wrap: nowrap;&quot;&gt;Antenna_id:int&lt;/span&gt;" style="shape=partialRectangle;connectable=0;fillColor=none;top=0;left=0;bottom=0;right=0;align=left;spacingLeft=6;overflow=hidden;whiteSpace=wrap;html=1;" parent="0TTvFeyUjTbbYuF8DtfV-66" vertex="1">
          <mxGeometry x="60" width="144" height="30" as="geometry">
            <mxRectangle width="144" height="30" as="alternateBounds" />
          </mxGeometry>
        </mxCell>
        <mxCell id="0TTvFeyUjTbbYuF8DtfV-69" value="" style="shape=tableRow;horizontal=0;startSize=0;swimlaneHead=0;swimlaneBody=0;fillColor=none;collapsible=0;dropTarget=0;points=[[0,0.5],[1,0.5]];portConstraint=eastwest;top=0;left=0;right=0;bottom=0;" parent="0TTvFeyUjTbbYuF8DtfV-62" vertex="1">
          <mxGeometry y="90" width="204" height="30" as="geometry" />
        </mxCell>
        <mxCell id="0TTvFeyUjTbbYuF8DtfV-70" value="" style="shape=partialRectangle;connectable=0;fillColor=none;top=0;left=0;bottom=0;right=0;editable=1;overflow=hidden;whiteSpace=wrap;html=1;" parent="0TTvFeyUjTbbYuF8DtfV-69" vertex="1">
          <mxGeometry width="60" height="30" as="geometry">
            <mxRectangle width="60" height="30" as="alternateBounds" />
          </mxGeometry>
        </mxCell>
        <mxCell id="0TTvFeyUjTbbYuF8DtfV-71" value="&lt;span style=&quot;color: rgb(24, 46, 62); text-wrap: nowrap;&quot;&gt;Tag_id:varchar(50)&lt;/span&gt;" style="shape=partialRectangle;connectable=0;fillColor=none;top=0;left=0;bottom=0;right=0;align=left;spacingLeft=6;overflow=hidden;whiteSpace=wrap;html=1;" parent="0TTvFeyUjTbbYuF8DtfV-69" vertex="1">
          <mxGeometry x="60" width="144" height="30" as="geometry">
            <mxRectangle width="144" height="30" as="alternateBounds" />
          </mxGeometry>
        </mxCell>
        <mxCell id="0TTvFeyUjTbbYuF8DtfV-72" value="" style="shape=tableRow;horizontal=0;startSize=0;swimlaneHead=0;swimlaneBody=0;fillColor=none;collapsible=0;dropTarget=0;points=[[0,0.5],[1,0.5]];portConstraint=eastwest;top=0;left=0;right=0;bottom=0;" parent="0TTvFeyUjTbbYuF8DtfV-62" vertex="1">
          <mxGeometry y="120" width="204" height="30" as="geometry" />
        </mxCell>
        <mxCell id="0TTvFeyUjTbbYuF8DtfV-73" value="" style="shape=partialRectangle;connectable=0;fillColor=none;top=0;left=0;bottom=0;right=0;editable=1;overflow=hidden;whiteSpace=wrap;html=1;" parent="0TTvFeyUjTbbYuF8DtfV-72" vertex="1">
          <mxGeometry width="60" height="30" as="geometry">
            <mxRectangle width="60" height="30" as="alternateBounds" />
          </mxGeometry>
        </mxCell>
        <mxCell id="0TTvFeyUjTbbYuF8DtfV-74" value="&lt;span style=&quot;color: rgb(24, 46, 62); text-wrap: nowrap;&quot;&gt;RSSI:int&lt;/span&gt;" style="shape=partialRectangle;connectable=0;fillColor=none;top=0;left=0;bottom=0;right=0;align=left;spacingLeft=6;overflow=hidden;whiteSpace=wrap;html=1;" parent="0TTvFeyUjTbbYuF8DtfV-72" vertex="1">
          <mxGeometry x="60" width="144" height="30" as="geometry">
            <mxRectangle width="144" height="30" as="alternateBounds" />
          </mxGeometry>
        </mxCell>
        <mxCell id="0TTvFeyUjTbbYuF8DtfV-106" value="" style="shape=tableRow;horizontal=0;startSize=0;swimlaneHead=0;swimlaneBody=0;fillColor=none;collapsible=0;dropTarget=0;points=[[0,0.5],[1,0.5]];portConstraint=eastwest;top=0;left=0;right=0;bottom=0;" parent="0TTvFeyUjTbbYuF8DtfV-62" vertex="1">
          <mxGeometry y="150" width="204" height="40" as="geometry" />
        </mxCell>
        <mxCell id="0TTvFeyUjTbbYuF8DtfV-107" value="" style="shape=partialRectangle;connectable=0;fillColor=none;top=0;left=0;bottom=0;right=0;editable=1;overflow=hidden;whiteSpace=wrap;html=1;" parent="0TTvFeyUjTbbYuF8DtfV-106" vertex="1">
          <mxGeometry width="60" height="40" as="geometry">
            <mxRectangle width="60" height="40" as="alternateBounds" />
          </mxGeometry>
        </mxCell>
        <mxCell id="0TTvFeyUjTbbYuF8DtfV-108" value="&lt;span style=&quot;color: rgb(24, 46, 62); text-wrap: nowrap;&quot;&gt;Dara_Leitura:date&lt;/span&gt;" style="shape=partialRectangle;connectable=0;fillColor=none;top=0;left=0;bottom=0;right=0;align=left;spacingLeft=6;overflow=hidden;whiteSpace=wrap;html=1;" parent="0TTvFeyUjTbbYuF8DtfV-106" vertex="1">
          <mxGeometry x="60" width="144" height="40" as="geometry">
            <mxRectangle width="144" height="40" as="alternateBounds" />
          </mxGeometry>
        </mxCell>
        <mxCell id="0TTvFeyUjTbbYuF8DtfV-112" value="" style="shape=tableRow;horizontal=0;startSize=0;swimlaneHead=0;swimlaneBody=0;fillColor=none;collapsible=0;dropTarget=0;points=[[0,0.5],[1,0.5]];portConstraint=eastwest;top=0;left=0;right=0;bottom=0;" parent="0TTvFeyUjTbbYuF8DtfV-62" vertex="1">
          <mxGeometry y="190" width="204" height="30" as="geometry" />
        </mxCell>
        <mxCell id="0TTvFeyUjTbbYuF8DtfV-113" value="" style="shape=partialRectangle;connectable=0;fillColor=none;top=0;left=0;bottom=0;right=0;editable=1;overflow=hidden;whiteSpace=wrap;html=1;" parent="0TTvFeyUjTbbYuF8DtfV-112" vertex="1">
          <mxGeometry width="60" height="30" as="geometry">
            <mxRectangle width="60" height="30" as="alternateBounds" />
          </mxGeometry>
        </mxCell>
        <mxCell id="0TTvFeyUjTbbYuF8DtfV-114" value="&lt;span style=&quot;color: rgb(24, 46, 62); text-wrap: nowrap;&quot;&gt;Hora_Leitura:time(7)&lt;/span&gt;" style="shape=partialRectangle;connectable=0;fillColor=none;top=0;left=0;bottom=0;right=0;align=left;spacingLeft=6;overflow=hidden;whiteSpace=wrap;html=1;" parent="0TTvFeyUjTbbYuF8DtfV-112" vertex="1">
          <mxGeometry x="60" width="144" height="30" as="geometry">
            <mxRectangle width="144" height="30" as="alternateBounds" />
          </mxGeometry>
        </mxCell>
        <mxCell id="0TTvFeyUjTbbYuF8DtfV-105" value="" style="shape=partialRectangle;connectable=0;fillColor=none;top=0;left=0;bottom=0;right=0;editable=1;overflow=hidden;whiteSpace=wrap;html=1;" parent="WIyWlLk6GJQsqaUBKTNV-1" vertex="1">
          <mxGeometry x="1080" y="690" width="20" height="30" as="geometry">
            <mxRectangle width="30" height="30" as="alternateBounds" />
          </mxGeometry>
        </mxCell>
      </root>
    </mxGraphModel>
  </diagram>
</mxfile>
